<svg width="245" height="66" viewBox="0 0 245 66" fill="none" xmlns="http://www.w3.org/2000/svg">
<rect width="245" height="66" fill="#F5F5F5"/>
<path d="M0.592 1.17599C1.168 1.304 2.224 1.4 3.76 1.464C5.296 1.528 7.056 1.592 9.04 1.656C11.024 1.656 12.976 1.656 14.896 1.656H36.208V3.672C34.864 6.936 33.232 10.296 31.312 13.752C29.456 17.208 27.6 20.92 25.744 24.888C23.952 28.792 22.448 33.048 21.232 37.656C20.08 42.2 19.536 47.224 19.6 52.728C19.6 53.752 19.632 54.712 19.696 55.608C19.76 56.504 19.824 57.336 19.888 58.104C19.952 58.872 19.984 59.608 19.984 60.312C19.984 61.72 19.568 62.872 18.736 63.768C17.904 64.728 16.816 65.208 15.472 65.208C14 65.208 12.912 64.664 12.208 63.576C11.504 62.488 11.152 61.24 11.152 59.832C11.152 55.48 11.696 51.288 12.784 47.256C13.936 43.224 15.408 39.32 17.2 35.544C18.992 31.704 20.944 27.992 23.056 24.408C25.232 20.76 27.344 17.24 29.392 13.848C31.504 10.392 33.392 7 35.056 3.672L32.368 9.72H9.04C6.416 9.72 4.752 10.072 4.048 10.776C3.344 11.48 2.864 12.76 2.608 14.616H0.976C0.976 11.224 0.944 8.504 0.88 6.456C0.816 4.408 0.72 2.648 0.592 1.17599ZM39.592 1.17599C40.168 1.304 41.224 1.4 42.76 1.464C44.296 1.528 46.056 1.592 48.04 1.656C50.024 1.656 51.976 1.656 53.896 1.656H75.208V3.672C73.864 6.936 72.232 10.296 70.312 13.752C68.456 17.208 66.6 20.92 64.744 24.888C62.952 28.792 61.448 33.048 60.232 37.656C59.08 42.2 58.536 47.224 58.6 52.728C58.6 53.752 58.632 54.712 58.696 55.608C58.76 56.504 58.824 57.336 58.888 58.104C58.952 58.872 58.984 59.608 58.984 60.312C58.984 61.72 58.568 62.872 57.736 63.768C56.904 64.728 55.816 65.208 54.472 65.208C53 65.208 51.912 64.664 51.208 63.576C50.504 62.488 50.152 61.24 50.152 59.832C50.152 55.48 50.696 51.288 51.784 47.256C52.936 43.224 54.408 39.32 56.2 35.544C57.992 31.704 59.944 27.992 62.056 24.408C64.232 20.76 66.344 17.24 68.392 13.848C70.504 10.392 72.392 7 74.056 3.672L71.368 9.72H48.04C45.416 9.72 43.752 10.072 43.048 10.776C42.344 11.48 41.864 12.76 41.608 14.616H39.976C39.976 11.224 39.944 8.504 39.88 6.456C39.816 4.408 39.72 2.648 39.592 1.17599Z" fill="black"/>
<path d="M107.104 18.04V19.32C106.293 19.4053 105.547 19.768 104.864 20.408C104.181 21.048 103.541 22.1787 102.944 23.8L92.448 51.32C92.2773 51.32 92.1067 51.32 91.936 51.32C91.7653 51.32 91.5733 51.32 91.36 51.32L79.584 22.968C78.9013 21.304 78.2187 20.3013 77.536 19.96C76.896 19.576 76.3413 19.384 75.872 19.384V18.04C76.7253 18.0827 77.6 18.1467 78.496 18.232C79.4347 18.2747 80.4373 18.296 81.504 18.296C82.8267 18.296 84.2133 18.2747 85.664 18.232C87.1573 18.1893 88.544 18.1253 89.824 18.04V19.384C88.7573 19.384 87.7973 19.4693 86.944 19.64C86.1333 19.768 85.6 20.1733 85.344 20.856C85.1307 21.5387 85.344 22.712 85.984 24.376L93.984 44.152L93.6 44.472L100.896 25.336C101.451 23.928 101.664 22.8187 101.536 22.008C101.451 21.1547 101.024 20.5147 100.256 20.088C99.5307 19.6613 98.4 19.4053 96.864 19.32V18.04C97.632 18.0827 98.2933 18.1253 98.848 18.168C99.4027 18.168 99.936 18.1893 100.448 18.232C101.003 18.232 101.6 18.232 102.24 18.232C103.221 18.232 104.096 18.2107 104.864 18.168C105.675 18.1253 106.421 18.0827 107.104 18.04Z" fill="#FFC9DE"/>
<path d="M124.721 17.144C128.475 17.144 131.398 18.296 133.489 20.6C135.622 22.8613 136.689 26.4027 136.689 31.224H114.097L114.033 30.008H130.545C130.63 27.9173 130.459 25.9973 130.033 24.248C129.606 22.456 128.923 21.0267 127.985 19.96C127.089 18.8933 125.915 18.36 124.465 18.36C122.502 18.36 120.753 19.3413 119.217 21.304C117.723 23.2667 116.827 26.3813 116.529 30.648L116.72 30.904C116.635 31.544 116.571 32.248 116.529 33.016C116.486 33.784 116.465 34.552 116.465 35.32C116.465 38.2213 116.934 40.7173 117.873 42.808C118.811 44.8987 120.027 46.4987 121.521 47.608C123.057 48.6747 124.635 49.208 126.257 49.208C127.537 49.208 128.753 49.016 129.905 48.632C131.057 48.2053 132.123 47.5227 133.105 46.584C134.086 45.6453 134.939 44.3867 135.665 42.808L136.945 43.32C136.475 44.728 135.707 46.0933 134.641 47.416C133.574 48.7387 132.23 49.8267 130.609 50.68C128.987 51.4907 127.11 51.896 124.977 51.896C121.905 51.896 119.259 51.192 117.041 49.784C114.865 48.376 113.179 46.4347 111.985 43.96C110.833 41.4427 110.257 38.5627 110.257 35.32C110.257 31.5653 110.854 28.344 112.049 25.656C113.243 22.9253 114.929 20.8347 117.105 19.384C119.281 17.8907 121.819 17.144 124.721 17.144Z" fill="#FDD97C"/>
<path d="M151.72 0.823997V45.048C151.72 46.84 152.082 48.056 152.808 48.696C153.576 49.336 154.834 49.656 156.583 49.656V51C155.858 50.9573 154.749 50.9147 153.256 50.872C151.805 50.7867 150.333 50.744 148.84 50.744C147.389 50.744 145.917 50.7867 144.424 50.872C142.93 50.9147 141.821 50.9573 141.096 51V49.656C142.845 49.656 144.082 49.336 144.808 48.696C145.576 48.056 145.96 46.84 145.96 45.048V8.504C145.96 6.584 145.618 5.176 144.936 4.28C144.253 3.34133 142.973 2.872 141.096 2.872V1.528C142.461 1.656 143.784 1.72 145.064 1.72C146.301 1.72 147.474 1.656 148.584 1.528C149.736 1.35733 150.781 1.12267 151.72 0.823997Z" fill="#FBFDAA"/>
<path d="M189.104 18.04V19.32C188.293 19.4053 187.547 19.768 186.864 20.408C186.181 21.048 185.541 22.1787 184.944 23.8L174.448 51.32C174.277 51.32 174.107 51.32 173.936 51.32C173.765 51.32 173.573 51.32 173.36 51.32L161.584 22.968C160.901 21.304 160.219 20.3013 159.536 19.96C158.896 19.576 158.341 19.384 157.872 19.384V18.04C158.725 18.0827 159.6 18.1467 160.496 18.232C161.435 18.2747 162.437 18.296 163.504 18.296C164.827 18.296 166.213 18.2747 167.664 18.232C169.157 18.1893 170.544 18.1253 171.824 18.04V19.384C170.757 19.384 169.797 19.4693 168.944 19.64C168.133 19.768 167.6 20.1733 167.344 20.856C167.131 21.5387 167.344 22.712 167.984 24.376L175.984 44.152L175.6 44.472L182.896 25.336C183.451 23.928 183.664 22.8187 183.536 22.008C183.451 21.1547 183.024 20.5147 182.256 20.088C181.531 19.6613 180.4 19.4053 178.864 19.32V18.04C179.632 18.0827 180.293 18.1253 180.848 18.168C181.403 18.168 181.936 18.1893 182.448 18.232C183.003 18.232 183.6 18.232 184.24 18.232C185.221 18.232 186.096 18.2107 186.864 18.168C187.675 18.1253 188.421 18.0827 189.104 18.04Z" fill="#C1F0B2"/>
<path d="M206.721 17.144C210.475 17.144 213.398 18.296 215.489 20.6C217.622 22.8613 218.689 26.4027 218.689 31.224H196.097L196.033 30.008H212.545C212.63 27.9173 212.459 25.9973 212.033 24.248C211.606 22.456 210.923 21.0267 209.985 19.96C209.089 18.8933 207.915 18.36 206.465 18.36C204.502 18.36 202.753 19.3413 201.217 21.304C199.723 23.2667 198.827 26.3813 198.529 30.648L198.72 30.904C198.635 31.544 198.571 32.248 198.529 33.016C198.486 33.784 198.465 34.552 198.465 35.32C198.465 38.2213 198.934 40.7173 199.873 42.808C200.811 44.8987 202.027 46.4987 203.521 47.608C205.057 48.6747 206.635 49.208 208.257 49.208C209.537 49.208 210.753 49.016 211.905 48.632C213.057 48.2053 214.123 47.5227 215.105 46.584C216.086 45.6453 216.939 44.3867 217.665 42.808L218.945 43.32C218.475 44.728 217.707 46.0933 216.641 47.416C215.574 48.7387 214.23 49.8267 212.609 50.68C210.987 51.4907 209.11 51.896 206.977 51.896C203.905 51.896 201.259 51.192 199.041 49.784C196.865 48.376 195.179 46.4347 193.985 43.96C192.833 41.4427 192.257 38.5627 192.257 35.32C192.257 31.5653 192.854 28.344 194.049 25.656C195.243 22.9253 196.929 20.8347 199.105 19.384C201.281 17.8907 203.819 17.144 206.721 17.144Z" fill="#B2E4F0"/>
<path d="M233.848 7.416V18.104H243.32V19.384H233.848V44.152C233.848 46.1573 234.21 47.5653 234.936 48.376C235.661 49.1867 236.664 49.592 237.944 49.592C239.224 49.592 240.333 49.08 241.272 48.056C242.21 46.9893 243.021 45.2187 243.704 42.744L244.984 43.064C244.557 45.5387 243.704 47.6293 242.424 49.336C241.186 51.0427 239.266 51.896 236.664 51.896C235.213 51.896 234.018 51.704 233.08 51.32C232.141 50.9787 231.309 50.4667 230.584 49.784C229.645 48.8027 228.984 47.6293 228.6 46.264C228.258 44.8987 228.088 43.0853 228.088 40.824V19.384H221.944V18.104H228.088V8.312C229.154 8.26933 230.178 8.184 231.16 8.056C232.141 7.928 233.037 7.71466 233.848 7.416Z" fill="#D6B2F0"/>
</svg>
