<svg width="100" height="86" viewBox="0 0 100 86" fill="none" xmlns="http://www.w3.org/2000/svg">
<path d="M0.456 0.567993C1.224 0.738663 2.632 0.866664 4.68 0.951996C6.728 1.03733 9.07467 1.12266 11.72 1.208C14.3653 1.208 16.968 1.208 19.528 1.208H47.944V3.896C46.152 8.248 43.976 12.728 41.416 17.336C38.9413 21.944 36.4667 26.8933 33.992 32.184C31.6027 37.3893 29.5973 43.064 27.976 49.208C26.44 55.2667 25.7147 61.9653 25.8 69.304C25.8 70.6693 25.8427 71.9493 25.928 73.144C26.0133 74.3387 26.0987 75.448 26.184 76.472C26.2693 77.496 26.312 78.4773 26.312 79.416C26.312 81.2933 25.7573 82.8293 24.648 84.024C23.5387 85.304 22.088 85.944 20.296 85.944C18.3333 85.944 16.8827 85.2187 15.944 83.768C15.0053 82.3173 14.536 80.6533 14.536 78.776C14.536 72.9733 15.2613 67.384 16.712 62.008C18.248 56.632 20.2107 51.4267 22.6 46.392C24.9893 41.272 27.592 36.3227 30.408 31.544C33.3093 26.68 36.1253 21.9867 38.856 17.464C41.672 12.856 44.1893 8.33333 46.408 3.896L42.824 11.96H11.72C8.22133 11.96 6.00267 12.4293 5.064 13.368C4.12533 14.3067 3.48533 16.0133 3.144 18.488H0.968C0.968 13.9653 0.925333 10.3387 0.84 7.608C0.754667 4.87733 0.626667 2.53066 0.456 0.567993ZM52.456 0.567993C53.224 0.738663 54.632 0.866664 56.68 0.951996C58.728 1.03733 61.0747 1.12266 63.72 1.208C66.3653 1.208 68.968 1.208 71.528 1.208H99.944V3.896C98.152 8.248 95.976 12.728 93.416 17.336C90.9413 21.944 88.4667 26.8933 85.992 32.184C83.6027 37.3893 81.5973 43.064 79.976 49.208C78.44 55.2667 77.7147 61.9653 77.8 69.304C77.8 70.6693 77.8427 71.9493 77.928 73.144C78.0133 74.3387 78.0987 75.448 78.184 76.472C78.2693 77.496 78.312 78.4773 78.312 79.416C78.312 81.2933 77.7573 82.8293 76.648 84.024C75.5387 85.304 74.088 85.944 72.296 85.944C70.3333 85.944 68.8827 85.2187 67.944 83.768C67.0053 82.3173 66.536 80.6533 66.536 78.776C66.536 72.9733 67.2613 67.384 68.712 62.008C70.248 56.632 72.2107 51.4267 74.6 46.392C76.9893 41.272 79.592 36.3227 82.408 31.544C85.3093 26.68 88.1253 21.9867 90.856 17.464C93.672 12.856 96.1893 8.33333 98.408 3.896L94.824 11.96H63.72C60.2213 11.96 58.0027 12.4293 57.064 13.368C56.1253 14.3067 55.4853 16.0133 55.144 18.488H52.968C52.968 13.9653 52.9253 10.3387 52.84 7.608C52.7547 4.87733 52.6267 2.53066 52.456 0.567993Z" fill="white"/>
</svg>
